<?xml version="1.0" encoding="iso-8859-1"?>
<!-- Generator: Adobe Illustrator 16.0.0, SVG Export Plug-In . SVG Version: 6.00 Build 0)  -->
<!DOCTYPE svg PUBLIC "-//W3C//DTD SVG 1.1//EN" "http://www.w3.org/Graphics/SVG/1.1/DTD/svg11.dtd">
<svg version="1.1" id="Capa_1" xmlns="http://www.w3.org/2000/svg" xmlns:xlink="http://www.w3.org/1999/xlink" x="0px" y="0px"
	 width="33.279px" height="33.28px" viewBox="0 0 33.279 33.28" style="enable-background:new 0 0 33.279 33.28;"
	 xml:space="preserve">
<g>
	<path d="M33.279,19.801l-3.945-2.643v-2.587V13.36l-1.143-0.403c-0.064-0.023-0.6-0.208-1.506-0.452
		c0.178-2.189,0.272-4.58,0.272-7.206V3.874H16.864h-0.448H6.321V5.3c0,2.625,0.095,5.017,0.273,7.206
		c-0.906,0.242-1.441,0.428-1.506,0.451L3.946,13.36v1.211v2.587L0,19.801l2.9,2.473l-1.76,3.805l7.698-2.771
		c1.674,3.974,4.194,5.977,7.577,6.08v0.01c0.044,0,0.145,0.01,0.153,0.009c0.008,0.001,0.056-0.002,0.071-0.002
		c0.015,0,0.18-0.005,0.224-0.007v-0.01c3.383-0.104,5.903-2.106,7.577-6.08l7.699,2.771l-1.759-3.805L33.279,19.801z M16.416,6.441
		h0.448h7.765c-0.023,1.782-0.072,3.708-0.203,5.54c-1.965-0.396-4.576-0.762-7.562-0.792c0,0-0.169-0.004-0.224-0.003
		c-0.056,0-0.225,0.003-0.225,0.003c-2.984,0.03-5.597,0.397-7.562,0.792c-0.13-1.832-0.18-3.758-0.203-5.54H16.416z M16.689,27.077
		c-0.042,0-0.085,0-0.099,0c-2.409,0-4.21-2.012-5.398-4.803c1.613-0.297,3.498-0.543,5.448-0.637
		c1.949,0.094,3.834,0.34,5.447,0.637C20.898,25.065,19.1,27.077,16.689,27.077z M27.623,21.846c0,0-5.01-1.615-10.727-1.921
		c-0.011,0-0.021-0.001-0.032-0.001c0,0-0.149-0.016-0.224-0.012c-0.075-0.003-0.225,0.012-0.225,0.012
		c-5.728,0.301-10.759,1.922-10.759,1.922v-7.274c0,0,4.673-1.646,10.983-1.674c6.31,0.029,10.982,1.674,10.982,1.674v7.274H27.623z
		"/>
</g>
<g>
</g>
<g>
</g>
<g>
</g>
<g>
</g>
<g>
</g>
<g>
</g>
<g>
</g>
<g>
</g>
<g>
</g>
<g>
</g>
<g>
</g>
<g>
</g>
<g>
</g>
<g>
</g>
<g>
</g>
</svg>
